<svg width="50" height="51" viewBox="0 0 50 51" fill="none" xmlns="http://www.w3.org/2000/svg">
<path fill-rule="evenodd" clip-rule="evenodd" d="M25 50.5155C38.8071 50.5155 50 39.2072 50 25.2577C50 11.3083 38.8071 0 25 0C11.1929 0 0 11.3083 0 25.2577C0 39.2072 11.1929 50.5155 25 50.5155Z" fill="#E3FCFF"/>
<path d="M29.75 16.7308V15.1547C29.75 14.7405 29.41 14.397 29 14.397C28.59 14.397 28.25 14.7405 28.25 15.1547V16.6702H21.75V15.1547C21.75 14.7405 21.41 14.397 21 14.397C20.59 14.397 20.25 14.7405 20.25 15.1547V16.7308C17.55 16.9834 16.24 18.61 16.04 21.0246C16.02 21.3176 16.26 21.5601 16.54 21.5601H33.46C33.75 21.5601 33.99 21.3075 33.96 21.0246C33.76 18.61 32.45 16.9834 29.75 16.7308Z" fill="black"/>
<path d="M32 28.2887C29.79 28.2887 28 30.0971 28 32.3299C28 33.0877 28.21 33.805 28.58 34.4112C29.27 35.5831 30.54 36.3712 32 36.3712C33.46 36.3712 34.73 35.5831 35.42 34.4112C35.79 33.805 36 33.0877 36 32.3299C36 30.0971 34.21 28.2887 32 28.2887ZM34.07 31.8955L31.94 33.8858C31.8 34.0172 31.61 34.0879 31.43 34.0879C31.24 34.0879 31.05 34.0171 30.9 33.8656L29.91 32.8654C29.62 32.5724 29.62 32.0875 29.91 31.7945C30.2 31.5015 30.68 31.5015 30.97 31.7945L31.45 32.2794L33.05 30.7842C33.35 30.5013 33.83 30.5215 34.11 30.8246C34.39 31.1277 34.37 31.6025 34.07 31.8955Z" fill="black"/>
<path d="M33 23.0754H17C16.45 23.0754 16 23.5301 16 24.0857V30.3093C16 33.3402 17.5 35.3608 21 35.3608H25.93C26.62 35.3608 27.1 34.6839 26.88 34.0272C26.68 33.4412 26.51 32.7946 26.51 32.3299C26.51 29.2686 28.98 26.7732 32.01 26.7732C32.3 26.7732 32.59 26.7934 32.87 26.8439C33.47 26.9348 34.01 26.46 34.01 25.8538V24.0959C34 23.5301 33.55 23.0754 33 23.0754ZM22.21 31.5317C22.02 31.7136 21.76 31.8247 21.5 31.8247C21.24 31.8247 20.98 31.7136 20.79 31.5317C20.61 31.3398 20.5 31.0771 20.5 30.8144C20.5 30.5517 20.61 30.289 20.79 30.0971C20.89 30.0062 20.99 29.9354 21.12 29.8849C21.49 29.7233 21.93 29.8142 22.21 30.0971C22.39 30.289 22.5 30.5517 22.5 30.8144C22.5 31.0771 22.39 31.3398 22.21 31.5317ZM22.21 27.9956C22.16 28.0361 22.11 28.0765 22.06 28.1169C22 28.1573 21.94 28.1876 21.88 28.2078C21.82 28.2381 21.76 28.2583 21.7 28.2684C21.63 28.2785 21.56 28.2886 21.5 28.2886C21.24 28.2886 20.98 28.1775 20.79 27.9956C20.61 27.8037 20.5 27.541 20.5 27.2783C20.5 27.0156 20.61 26.753 20.79 26.561C21.02 26.3286 21.37 26.2175 21.7 26.2882C21.76 26.2983 21.82 26.3185 21.88 26.3488C21.94 26.369 22 26.3994 22.06 26.4398C22.11 26.4802 22.16 26.5206 22.21 26.561C22.39 26.753 22.5 27.0156 22.5 27.2783C22.5 27.541 22.39 27.8037 22.21 27.9956ZM25.71 27.9956C25.52 28.1775 25.26 28.2886 25 28.2886C24.74 28.2886 24.48 28.1775 24.29 27.9956C24.11 27.8037 24 27.541 24 27.2783C24 27.0156 24.11 26.753 24.29 26.561C24.67 26.1872 25.34 26.1872 25.71 26.561C25.89 26.753 26 27.0156 26 27.2783C26 27.541 25.89 27.8037 25.71 27.9956Z" fill="black"/>
</svg>
