<svg width="50" height="51" viewBox="0 0 50 51" fill="none" xmlns="http://www.w3.org/2000/svg">
<path fill-rule="evenodd" clip-rule="evenodd" d="M25 50.5155C38.8071 50.5155 50 39.2072 50 25.2577C50 11.3083 38.8071 0 25 0C11.1929 0 0 11.3083 0 25.2577C0 39.2072 11.1929 50.5155 25 50.5155Z" fill="#E3FCFF"/>
<path d="M33.98 23.9444C33.76 20.0042 30.87 16.7207 27.01 16.0539C26.95 15.2759 26.31 14.6495 25.52 14.6495H24.52C23.73 14.6495 23.1 15.2658 23.03 16.0438C19.15 16.6904 16.24 19.984 16.02 23.9444C15.31 24.0656 14.77 24.6819 14.77 25.4295V26.4398C14.77 27.2784 15.44 27.9553 16.27 27.9553H17.27C18.1 27.9553 18.77 27.2784 18.77 26.4398V25.4295C18.77 24.6819 18.23 24.0656 17.52 23.9444C17.73 20.7922 20.02 18.1755 23.08 17.5693C23.25 18.2159 23.83 18.6908 24.52 18.6908H25.52C26.21 18.6908 26.78 18.2159 26.96 17.5794C30 18.1957 32.27 20.8124 32.48 23.9444C31.77 24.0656 31.23 24.6819 31.23 25.4295V26.4398C31.23 27.2784 31.9 27.9553 32.73 27.9553H33.73C34.56 27.9553 35.23 27.2784 35.23 26.4398V25.4295C35.23 24.6819 34.69 24.0555 33.98 23.9444Z" fill="black"/>
<path d="M28.77 29.8547L27.13 31.3196H22.88L21.24 29.8547C20.29 29.0666 20.29 28.4604 21.01 27.5309L23.9 23.8332C24.1 23.5806 24.33 23.4089 24.59 23.318C24.86 23.227 25.15 23.227 25.43 23.318C25.68 23.4089 25.91 23.5806 26.12 23.8332L29 27.5208C29.73 28.4503 29.69 29.0262 28.77 29.8547Z" fill="black"/>
<path d="M26.32 35.3608H23.73C22.81 35.3608 22.12 34.6031 22.3 33.7948L22.61 32.3905C22.67 32.1076 22.92 31.9156 23.2 31.9156H26.85C27.13 31.9156 27.37 32.1076 27.44 32.3905L27.75 33.7948C27.94 34.6536 27.3 35.3608 26.32 35.3608Z" fill="black"/>
</svg>
