<svg width="50" height="51" viewBox="0 0 50 51" fill="none" xmlns="http://www.w3.org/2000/svg">
<path fill-rule="evenodd" clip-rule="evenodd" d="M25 50.5155C38.8071 50.5155 50 39.2072 50 25.2577C50 11.3083 38.8071 0 25 0C11.1929 0 0 11.3083 0 25.2577C0 39.2072 11.1929 50.5155 25 50.5155Z" fill="#E3FCFF"/>
<path d="M30.53 20.9841C30.46 20.974 30.39 20.974 30.32 20.9841C28.77 20.9336 27.54 19.6505 27.54 18.0745C27.54 16.4681 28.83 15.1547 30.43 15.1547C32.02 15.1547 33.32 16.458 33.32 18.0745C33.31 19.6505 32.08 20.9336 30.53 20.9841Z" fill="black"/>
<path d="M33.79 27.9856C32.67 28.7433 31.1 29.0262 29.65 28.8343C30.03 28.0058 30.23 27.0864 30.24 26.1165C30.24 25.1062 30.02 24.1464 29.6 23.3079C31.08 23.1058 32.65 23.3887 33.78 24.1464C35.36 25.1971 35.36 26.9248 33.79 27.9856Z" fill="black"/>
<path d="M19.44 20.9841C19.51 20.974 19.58 20.974 19.65 20.9841C21.2 20.9336 22.43 19.6505 22.43 18.0745C22.43 16.458 21.14 15.1547 19.54 15.1547C17.95 15.1547 16.66 16.458 16.66 18.0745C16.66 19.6505 17.89 20.9336 19.44 20.9841Z" fill="black"/>
<path d="M19.55 26.1165C19.55 27.0965 19.76 28.026 20.14 28.8645C18.73 29.0161 17.26 28.713 16.18 27.9956C14.6 26.9348 14.6 25.2072 16.18 24.1464C17.25 23.4189 18.76 23.126 20.18 23.2876C19.77 24.1363 19.55 25.0961 19.55 26.1165Z" fill="black"/>
<path d="M25.12 29.1676C25.04 29.1575 24.95 29.1575 24.86 29.1676C23.02 29.107 21.55 27.5814 21.55 25.7023C21.56 23.7827 23.09 22.2268 25 22.2268C26.9 22.2268 28.44 23.7827 28.44 25.7023C28.43 27.5814 26.97 29.107 25.12 29.1676Z" fill="black"/>
<path d="M21.87 31.259C20.36 32.2794 20.36 33.9565 21.87 34.9668C23.59 36.1287 26.41 36.1287 28.13 34.9668C29.64 33.9464 29.64 32.2693 28.13 31.259C26.42 30.0971 23.6 30.0971 21.87 31.259Z" fill="black"/>
</svg>
