<svg width="40" height="40" viewBox="0 0 40 40" fill="none" xmlns="http://www.w3.org/2000/svg">
<path d="M34.377 4.375H5.627C4.93559 4.375 4.377 4.93359 4.377 5.625V34.375C4.377 35.0664 4.93559 35.625 5.627 35.625H34.377C35.0684 35.625 35.627 35.0664 35.627 34.375V5.625C35.627 4.93359 35.0684 4.375 34.377 4.375ZM13.6465 31.0039H9.00981V16.0898H13.6465V31.0039ZM11.3301 14.0508C10.7986 14.0508 10.279 13.8932 9.83703 13.5979C9.39507 13.3025 9.05061 12.8828 8.8472 12.3917C8.64379 11.9007 8.59057 11.3603 8.69426 10.839C8.79796 10.3177 9.05392 9.83879 9.42977 9.46293C9.80563 9.08708 10.2845 8.83112 10.8058 8.72742C11.3271 8.62372 11.8675 8.67694 12.3586 8.88035C12.8497 9.08377 13.2694 9.42823 13.5647 9.87019C13.86 10.3121 14.0176 10.8317 14.0176 11.3633C14.0137 12.8477 12.8106 14.0508 11.3301 14.0508ZM31.0059 31.0039H26.3731V23.75C26.3731 22.0195 26.3418 19.7969 23.9629 19.7969C21.5528 19.7969 21.1817 21.6797 21.1817 23.625V31.0039H16.5528V16.0898H20.9981V18.1289H21.0606C21.6778 16.957 23.1895 15.7188 25.4473 15.7188C30.1426 15.7188 31.0059 18.8086 31.0059 22.8242V31.0039Z" fill="white"/>
</svg>
