<svg width="164" height="96" viewBox="0 0 164 96" fill="none" xmlns="http://www.w3.org/2000/svg">
<path d="M58.5607 95.607L64.8187 69.3538H54.8139L56.1463 63.4093H83.0594L81.7482 69.3538H73.0096L66.7517 95.607H58.5607Z" fill="white"/>
<path d="M77.3777 95.607L84.9468 63.4093H106.677L105.054 69.3115H92.0953L90.465 76.3349H103.153L101.863 81.9621H89.1964L87.4597 89.7048H101.041L99.1076 95.607H77.3777Z" fill="white"/>
<path d="M125.716 95.1326C125.305 95.2313 124.73 95.33 123.993 95.4287C123.269 95.5275 122.482 95.6191 121.631 95.7037C120.794 95.7884 119.943 95.8589 119.078 95.9153C118.227 95.9717 117.461 95.9999 116.781 95.9999C114.837 95.9999 113.107 95.8095 111.589 95.4287C110.072 95.0479 108.788 94.4344 107.739 93.5882C106.689 92.7421 105.888 91.642 105.334 90.2881C104.781 88.9201 104.505 87.2559 104.505 85.2955C104.505 84.534 104.54 83.7371 104.611 82.905C104.682 82.0729 104.803 81.1915 104.973 80.2607L105.675 76.5797C106.214 73.6885 106.973 71.3262 107.951 69.4928C108.944 67.6453 110.15 66.1997 111.568 65.1561C112.986 64.0983 114.625 63.372 116.483 62.9771C118.355 62.5822 120.447 62.3848 122.759 62.3848C123.44 62.3848 124.198 62.413 125.035 62.4694C125.872 62.5258 126.695 62.5963 127.503 62.6809C128.326 62.7656 129.078 62.8643 129.758 62.9771C130.453 63.0758 131.615 63.4911 131.998 63.6039L130.687 69.0486C130.148 69.0063 129.248 68.9639 128.61 68.9216C127.971 68.8793 127.305 68.837 126.61 68.7947C125.929 68.7524 125.234 68.7242 124.525 68.7101C123.83 68.6819 123.149 68.6678 122.482 68.6678C121.277 68.6678 120.206 68.7877 119.27 69.0274C118.348 69.2672 117.532 69.7114 116.823 70.3602C116.128 70.9948 115.532 71.8763 115.036 73.0045C114.554 74.1187 114.149 75.5572 113.823 77.3201L113.121 81.0011C112.866 82.4396 112.738 83.6384 112.738 84.5974C112.738 85.6129 112.866 86.452 113.121 87.1148C113.377 87.7636 113.752 88.2784 114.249 88.6592C114.759 89.0399 115.383 89.3079 116.121 89.463C116.873 89.6041 117.731 89.6746 118.695 89.6746C119.362 89.6746 120.05 89.6675 120.759 89.6534C121.468 89.6252 122.17 89.597 122.865 89.5688C123.56 89.5406 124.234 89.5054 124.886 89.463C125.539 89.4066 126.757 89.3573 127.296 89.315L125.716 95.1326Z" fill="white"/>
<path d="M148.446 95.607L151.162 82.0467H138.681L135.365 95.607H127.796L134.743 63.4093H142.311L139.724 75.8907H152.516L155.704 63.4093H163.23L155.972 95.607H148.446Z" fill="white"/>
<path d="M3.49478 11.2445C2.76797 20.8142 11.6714 25.5284 16.214 26.6892C13.4279 25.7202 10.7124 20.9353 9.70298 18.664C13.3875 20.8848 23.3307 25.2962 33.6273 25.1751C43.9238 25.0539 48.4159 29.8691 49.3749 32.2918L31.2046 33.9574L40.744 34.8659L44.9837 37.8943L54.2203 36.0773C70.6948 36.6829 76.2266 49.0489 76.9333 55.1561L69.3623 52.4306C56.0374 48.5542 39.9869 54.7523 33.6273 58.3359L39.9869 52.4306C15.7598 58.1239 3.34336 74.6892 0.163548 82.2602C-1.16894 92.6779 5.96796 95.6861 9.70298 95.888H48.4664C52.585 95.888 54.0184 93.3643 54.2203 92.1025L56.3402 83.623C58.5206 76.8394 53.8165 76.052 51.1919 76.5063C45.9427 76.4053 33.8998 76.264 27.7219 76.5063C21.544 76.7486 19.7976 74.1845 19.6967 72.8722C19.4544 66.8154 24.9459 64.2918 27.7219 63.787L26.8134 67.7239C37.3522 56.4583 50.1825 54.0457 55.2803 54.2476C55.2803 54.2476 74.8639 54.8028 79.356 57.276C77.2967 39.1057 62.4475 33.0489 55.2803 32.2918C50.0714 25.7504 39.8859 23.6104 35.4443 23.358C33.0216 20.693 35.7471 20.0268 37.4128 20.0268H60.2771C64.0323 20.0268 65.0721 18.6135 65.1225 17.9069L70.2708 3.82489C72.4512 0.311957 69.968 -0.162488 68.4538 0.0394063H11.3686C9.04683 -0.21296 4.2216 1.67474 3.49478 11.2445Z" fill="white"/>
<path d="M17.4254 28.2036C5.91749 28.2036 1.22348 19.7241 0.314964 15.4844V24.721C5.64493 29.3241 13.9427 28.9607 17.4254 28.2036Z" fill="white"/>
<path d="M24.3907 39.4087C11.308 38.4396 2.8891 42.0333 0.314964 43.9513V54.702C0.314964 45.6169 16.3654 40.721 24.3907 39.4087Z" fill="white"/>
</svg>
