<svg width="40" height="40" viewBox="0 0 40 40" fill="none" xmlns="http://www.w3.org/2000/svg">
<path d="M36.2508 9.93361C35.0555 10.4492 33.7547 10.8203 32.4149 10.9649C33.8059 10.1384 34.8477 8.83283 35.3446 7.29298C34.0392 8.0695 32.6092 8.61401 31.118 8.90236C30.4947 8.23606 29.7409 7.70525 28.9036 7.34301C28.0662 6.98078 27.1632 6.79488 26.2508 6.79689C22.5594 6.79689 19.5907 9.78908 19.5907 13.461C19.5907 13.9766 19.6532 14.4922 19.7547 14.9883C14.2274 14.6992 9.29769 12.0586 6.02035 8.01564C5.42318 9.03562 5.11025 10.197 5.1141 11.3789C5.1141 13.6914 6.28988 15.7305 8.08285 16.9297C7.02623 16.8881 5.99435 16.5977 5.07113 16.082V16.1641C5.07113 19.4024 7.3602 22.086 10.411 22.7031C9.83816 22.8519 9.24889 22.928 8.65707 22.9297C8.22348 22.9297 7.81332 22.8867 7.39926 22.8281C8.24301 25.4688 10.7 27.3867 13.6258 27.4492C11.3368 29.2422 8.46957 30.2969 5.35629 30.2969C4.7977 30.2969 4.28207 30.2774 3.74691 30.2149C6.70004 32.1094 10.2039 33.2031 13.9774 33.2031C26.2274 33.2031 32.9305 23.0547 32.9305 14.2461C32.9305 13.957 32.9305 13.668 32.911 13.3789C34.2078 12.4297 35.3446 11.2539 36.2508 9.93361Z" fill="white"/>
</svg>
