<svg width="88" height="88" viewBox="0 0 88 88" fill="none" xmlns="http://www.w3.org/2000/svg">
<g filter="url(#filter0_d)">
<path d="M44 6.6667C62.4095 6.6667 77.3333 21.5905 77.3333 40C77.3333 58.4095 62.4095 73.3334 44 73.3334C25.5905 73.3334 10.6666 58.4095 10.6666 40C10.6666 21.5905 25.5905 6.6667 44 6.6667Z" fill="white"/>
</g>
<path d="M55.7667 33.3C55.1334 33.3 54.5 33.5333 54 34.0333L44 44.0333L34 34.0333C33.0334 33.0667 31.4334 33.0667 30.4667 34.0333C29.5 35 29.5 36.6 30.4667 37.5667L42.2334 49.3333C43.2 50.3 44.8 50.3 45.7667 49.3333L57.5334 37.5667C58.5 36.6 58.5 35 57.5334 34.0333C57.0334 33.5333 56.4 33.3 55.7667 33.3Z" fill="black"/>
<defs>
<filter id="filter0_d" x="0.666626" y="0.666748" width="86.6667" height="86.6667" filterUnits="userSpaceOnUse" color-interpolation-filters="sRGB">
<feFlood flood-opacity="0" result="BackgroundImageFix"/>
<feColorMatrix in="SourceAlpha" type="matrix" values="0 0 0 0 0 0 0 0 0 0 0 0 0 0 0 0 0 0 127 0" result="hardAlpha"/>
<feOffset dy="4"/>
<feGaussianBlur stdDeviation="5"/>
<feComposite in2="hardAlpha" operator="out"/>
<feColorMatrix type="matrix" values="0 0 0 0 0 0 0 0 0 0 0 0 0 0 0 0 0 0 0.3 0"/>
<feBlend mode="normal" in2="BackgroundImageFix" result="effect1_dropShadow"/>
<feBlend mode="normal" in="SourceGraphic" in2="effect1_dropShadow" result="shape"/>
</filter>
</defs>
</svg>
