<svg width="40" height="40" viewBox="0 0 40 40" fill="none" xmlns="http://www.w3.org/2000/svg">
<path d="M34.3666 14.0832C32.6166 6.38317 25.9 2.9165 20 2.9165C20 2.9165 20 2.9165 19.9833 2.9165C14.1 2.9165 7.36664 6.3665 5.61664 14.0665C3.66664 22.6665 8.93331 29.9498 13.7 34.5332C15.4666 36.2332 17.7333 37.0832 20 37.0832C22.2666 37.0832 24.5333 36.2332 26.2833 34.5332C31.05 29.9498 36.3166 22.6832 34.3666 14.0832ZM20 22.4332C17.1 22.4332 14.75 20.0832 14.75 17.1832C14.75 14.2832 17.1 11.9332 20 11.9332C22.9 11.9332 25.25 14.2832 25.25 17.1832C25.25 20.0832 22.9 22.4332 20 22.4332Z" fill="white"/>
</svg>
