<svg width="40" height="40" viewBox="0 0 40 40" fill="none" xmlns="http://www.w3.org/2000/svg">
<path d="M27.0667 3.3335H12.9334C8.33335 3.3335 6.66669 5.00016 6.66669 9.6835V30.3168C6.66669 35.0002 8.33335 36.6668 12.9334 36.6668H27.05C31.6667 36.6668 33.3334 35.0002 33.3334 30.3168V9.6835C33.3334 5.00016 31.6667 3.3335 27.0667 3.3335ZM20 32.1668C18.4 32.1668 17.0834 30.8502 17.0834 29.2502C17.0834 27.6502 18.4 26.3335 20 26.3335C21.6 26.3335 22.9167 27.6502 22.9167 29.2502C22.9167 30.8502 21.6 32.1668 20 32.1668ZM23.3334 10.4168H16.6667C15.9834 10.4168 15.4167 9.85016 15.4167 9.16683C15.4167 8.4835 15.9834 7.91683 16.6667 7.91683H23.3334C24.0167 7.91683 24.5834 8.4835 24.5834 9.16683C24.5834 9.85016 24.0167 10.4168 23.3334 10.4168Z" fill="white"/>
</svg>
